<svg id="Layer_1" data-name="Layer 1" xmlns="http://www.w3.org/2000/svg" xmlns:xlink="http://www.w3.org/1999/xlink" viewBox="0 0 200 230"><defs><style>.cls-1{fill:#fff;}.cls-2{fill:#5ea84d;}.cls-3{fill:url(#linear-gradient);}.cls-4{fill:url(#linear-gradient-2);}.cls-5{fill:url(#linear-gradient-3);}.cls-6{fill:url(#linear-gradient-4);}.cls-7{fill:url(#linear-gradient-5);}.cls-8{fill:url(#linear-gradient-6);}.cls-9{fill:#216bb3;}.cls-10{fill:#2aa2db;}</style><linearGradient id="linear-gradient" x1="15.45" y1="145.8" x2="28.95" y2="191.29" gradientUnits="userSpaceOnUse"><stop offset="0" stop-color="#2aa2db"/><stop offset="0.96" stop-color="#216bb3"/></linearGradient><linearGradient id="linear-gradient-2" x1="50.12" y1="156.16" x2="61.63" y2="194.93" xlink:href="#linear-gradient"/><linearGradient id="linear-gradient-3" x1="91.2" y1="151.79" x2="102.72" y2="190.6" xlink:href="#linear-gradient"/><linearGradient id="linear-gradient-4" x1="112.61" y1="140.84" x2="127.54" y2="191.11" xlink:href="#linear-gradient"/><linearGradient id="linear-gradient-5" x1="131.5" y1="143.32" x2="145.71" y2="191.17" xlink:href="#linear-gradient"/><linearGradient id="linear-gradient-6" x1="161.35" y1="154.03" x2="173.64" y2="195.42" xlink:href="#linear-gradient"/></defs><rect class="cls-1" y="0.14" width="200" height="230" rx="10.21"/><path class="cls-2" d="M19.53,211.53a1.77,1.77,0,0,1,0,.24.43.43,0,0,1,0,.17.58.58,0,0,1,0,.14l-.12.14a2.89,2.89,0,0,1-.36.26,4.82,4.82,0,0,1-.68.33,6.06,6.06,0,0,1-.93.28,5.73,5.73,0,0,1-1.14.11,5.2,5.2,0,0,1-1.94-.35,4,4,0,0,1-1.47-1,4.69,4.69,0,0,1-.94-1.69,7.79,7.79,0,0,1-.32-2.32,7.39,7.39,0,0,1,.35-2.4,5.25,5.25,0,0,1,1-1.79,4.3,4.3,0,0,1,1.53-1.11,4.84,4.84,0,0,1,2-.39,4.73,4.73,0,0,1,.93.09,5.88,5.88,0,0,1,.83.22,3.57,3.57,0,0,1,.68.31,2.39,2.39,0,0,1,.42.29l.15.17a.58.58,0,0,1,.05.14.84.84,0,0,1,0,.19,1.84,1.84,0,0,1,0,.26,2.16,2.16,0,0,1,0,.28,1,1,0,0,1,0,.2.24.24,0,0,1-.08.11.16.16,0,0,1-.12,0,.6.6,0,0,1-.33-.16,5.28,5.28,0,0,0-.55-.36,4.68,4.68,0,0,0-.83-.36,3.57,3.57,0,0,0-1.16-.16,3,3,0,0,0-1.33.28,2.94,2.94,0,0,0-1,.85,4.37,4.37,0,0,0-.66,1.37,6.48,6.48,0,0,0-.23,1.84,6.62,6.62,0,0,0,.22,1.82,3.71,3.71,0,0,0,.65,1.32,2.73,2.73,0,0,0,1,.81,3.46,3.46,0,0,0,1.4.27,3.63,3.63,0,0,0,1.15-.16,4.81,4.81,0,0,0,.84-.36c.23-.13.42-.25.57-.35a.62.62,0,0,1,.35-.16l.1,0a.2.2,0,0,1,.07.1.77.77,0,0,1,0,.2A2.82,2.82,0,0,1,19.53,211.53Z"/><path class="cls-2" d="M27.18,212.44a2.35,2.35,0,0,1,0,.28.85.85,0,0,1-.06.19A.38.38,0,0,1,27,213a.28.28,0,0,1-.13,0H22a.64.64,0,0,1-.37-.13.53.53,0,0,1-.18-.46v-10a.15.15,0,0,1,0-.11.19.19,0,0,1,.11-.08l.23-.05a3.16,3.16,0,0,1,.71,0,.9.9,0,0,1,.22.05.18.18,0,0,1,.12.08.21.21,0,0,1,0,.11v9.36h3.95a.2.2,0,0,1,.13,0,.25.25,0,0,1,.09.11.63.63,0,0,1,.06.18A2.53,2.53,0,0,1,27.18,212.44Z"/><path class="cls-2" d="M34.93,212.47a2.13,2.13,0,0,1,0,.27.48.48,0,0,1-.06.18.25.25,0,0,1-.09.11.28.28,0,0,1-.13,0H29.35a.62.62,0,0,1-.37-.13.53.53,0,0,1-.18-.46v-9.65a.5.5,0,0,1,.18-.45.56.56,0,0,1,.37-.13h5.22a.28.28,0,0,1,.13,0,.35.35,0,0,1,.09.11.74.74,0,0,1,.05.19,1.91,1.91,0,0,1,0,.28,2,2,0,0,1,0,.26.65.65,0,0,1-.05.18.35.35,0,0,1-.09.11.28.28,0,0,1-.13,0h-4.3v3.4H34a.24.24,0,0,1,.12,0,.36.36,0,0,1,.1.11.56.56,0,0,1,0,.18,2.16,2.16,0,0,1,0,.28,2,2,0,0,1,0,.26.58.58,0,0,1,0,.17A.25.25,0,0,1,34,208H30.27v3.87h4.36a.28.28,0,0,1,.13,0,.33.33,0,0,1,.09.11.42.42,0,0,1,.06.18A2.16,2.16,0,0,1,34.93,212.47Z"/><path class="cls-2" d="M45.38,212.55a2,2,0,0,1,.07.3.19.19,0,0,1-.07.17.38.38,0,0,1-.22.08l-.42,0-.42,0a1,1,0,0,1-.24,0A.23.23,0,0,1,44,213a.35.35,0,0,1-.07-.12l-1-2.64H38.36l-.9,2.6a.4.4,0,0,1-.07.13.27.27,0,0,1-.12.09.64.64,0,0,1-.23.06l-.39,0a2.1,2.1,0,0,1-.4,0A.41.41,0,0,1,36,213a.21.21,0,0,1-.06-.17,1.17,1.17,0,0,1,.08-.29l3.69-10.05a.32.32,0,0,1,.09-.15.49.49,0,0,1,.16-.1l.27,0h.88l.29,0a.55.55,0,0,1,.17.1.35.35,0,0,1,.09.16Zm-4.75-8.87h0l-1.89,5.4h3.83Z"/><path class="cls-2" d="M55.54,212.47a.65.65,0,0,1-.06.29.45.45,0,0,1-.15.19.78.78,0,0,1-.2.11l-.23,0h-.49A1.62,1.62,0,0,1,54,213a.88.88,0,0,1-.32-.16,1.42,1.42,0,0,1-.31-.33,5.37,5.37,0,0,1-.33-.54l-3.36-6.15c-.17-.32-.35-.65-.53-1s-.34-.69-.5-1h0c0,.4,0,.81,0,1.23s0,.83,0,1.25v6.53a.17.17,0,0,1,0,.11.18.18,0,0,1-.12.08,1,1,0,0,1-.22.05,1.79,1.79,0,0,1-.36,0,1.69,1.69,0,0,1-.35,0,.8.8,0,0,1-.22-.05.18.18,0,0,1-.12-.08.25.25,0,0,1,0-.11v-10a.54.54,0,0,1,.2-.47.66.66,0,0,1,.42-.14h.72a1.8,1.8,0,0,1,.43,0,.83.83,0,0,1,.3.14,1.3,1.3,0,0,1,.27.26,4.84,4.84,0,0,1,.26.43l2.59,4.75.46.85.43.82.4.79c.14.26.27.52.4.78h0c0-.44,0-.9,0-1.38v-7.24a.2.2,0,0,1,0-.11l.12-.09.23,0,.36,0,.34,0a1,1,0,0,1,.23,0,.35.35,0,0,1,.11.09.15.15,0,0,1,0,.11Z"/><path class="cls-2" d="M59.93,212.85a.27.27,0,0,1,0,.12.22.22,0,0,1-.12.07,1,1,0,0,1-.23.05,1.69,1.69,0,0,1-.35,0,1.75,1.75,0,0,1-.35,0l-.23-.05a.27.27,0,0,1-.12-.07.27.27,0,0,1,0-.12V202.46a.15.15,0,0,1,0-.11.21.21,0,0,1,.12-.08l.23-.05a3,3,0,0,1,.69,0,1,1,0,0,1,.23.05.18.18,0,0,1,.12.08.2.2,0,0,1,0,.11Z"/><path class="cls-2" d="M71.19,212.47a.65.65,0,0,1-.06.29.57.57,0,0,1-.36.3.85.85,0,0,1-.23,0h-.48a1.56,1.56,0,0,1-.4-.05,1,1,0,0,1-.33-.16,1.64,1.64,0,0,1-.3-.33,3.19,3.19,0,0,1-.33-.54l-3.36-6.15c-.18-.32-.35-.65-.53-1s-.35-.69-.5-1h0q0,.6,0,1.23c0,.42,0,.83,0,1.25v6.53a.25.25,0,0,1,0,.11.18.18,0,0,1-.12.08,1,1,0,0,1-.23.05,1.69,1.69,0,0,1-.35,0,1.86,1.86,0,0,1-.36,0A1,1,0,0,1,63,213a.19.19,0,0,1-.11-.08.17.17,0,0,1,0-.11v-10a.54.54,0,0,1,.2-.47.63.63,0,0,1,.42-.14h.72a1.66,1.66,0,0,1,.42,0,.8.8,0,0,1,.31.14,1.07,1.07,0,0,1,.26.26,3.22,3.22,0,0,1,.27.43l2.59,4.75c.15.29.31.58.46.85s.29.55.42.82l.41.79c.14.26.27.52.4.78h0c0-.44,0-.9,0-1.38s0-.93,0-1.37v-5.87a.21.21,0,0,1,0-.11.31.31,0,0,1,.12-.09,1,1,0,0,1,.22,0l.37,0,.34,0a.8.8,0,0,1,.22,0,.31.31,0,0,1,.12.09.15.15,0,0,1,0,.11Z"/><path class="cls-2" d="M82.39,203.72a1.23,1.23,0,0,1,0,.28.53.53,0,0,1-.05.2.24.24,0,0,1-.08.11.23.23,0,0,1-.11,0,.79.79,0,0,1-.34-.15,5.64,5.64,0,0,0-.64-.36,8,8,0,0,0-1-.35,5.07,5.07,0,0,0-1.32-.16,3.91,3.91,0,0,0-1.64.33,3.56,3.56,0,0,0-1.22.9,3.92,3.92,0,0,0-.77,1.37,5.36,5.36,0,0,0-.27,1.73,5.51,5.51,0,0,0,.29,1.84,4.12,4.12,0,0,0,.81,1.35,3.41,3.41,0,0,0,1.24.84,4.27,4.27,0,0,0,1.58.28,4.68,4.68,0,0,0,1-.12,3.88,3.88,0,0,0,1-.36v-3.16H78.35a.22.22,0,0,1-.22-.14,1,1,0,0,1-.07-.44,2.1,2.1,0,0,1,0-.27.71.71,0,0,1,.06-.19.45.45,0,0,1,.09-.1.25.25,0,0,1,.13,0h3.5a.57.57,0,0,1,.18,0,.37.37,0,0,1,.17.1.41.41,0,0,1,.12.18.76.76,0,0,1,.05.27v4.12a.89.89,0,0,1-.08.38.64.64,0,0,1-.32.28,6.41,6.41,0,0,1-.64.26,5.41,5.41,0,0,1-.81.24,6.6,6.6,0,0,1-1.69.21,6.26,6.26,0,0,1-2.28-.39,4.65,4.65,0,0,1-1.7-1.11A4.94,4.94,0,0,1,73.79,210a7.18,7.18,0,0,1,0-4.58,5.24,5.24,0,0,1,1.12-1.78,4.92,4.92,0,0,1,1.73-1.14,5.9,5.9,0,0,1,2.23-.4,6.33,6.33,0,0,1,1.18.1,8.79,8.79,0,0,1,1,.26,4.07,4.07,0,0,1,.72.32,1.54,1.54,0,0,1,.4.28.51.51,0,0,1,.16.25A1.44,1.44,0,0,1,82.39,203.72Z"/><path class="cls-2" d="M97.31,212.55a1.22,1.22,0,0,1,.07.3.19.19,0,0,1-.07.17.38.38,0,0,1-.22.08l-.42,0-.42,0a1,1,0,0,1-.24,0,.23.23,0,0,1-.12-.08.35.35,0,0,1-.07-.12l-.95-2.64H90.29l-.9,2.6a.4.4,0,0,1-.07.13.27.27,0,0,1-.12.09.64.64,0,0,1-.23.06l-.39,0a2.17,2.17,0,0,1-.4,0A.41.41,0,0,1,88,213a.21.21,0,0,1-.06-.17,1.17,1.17,0,0,1,.08-.29l3.69-10.05a.32.32,0,0,1,.09-.15.49.49,0,0,1,.16-.1,1.55,1.55,0,0,1,.28,0h.87l.29,0a.55.55,0,0,1,.17.1.35.35,0,0,1,.09.16Zm-4.75-8.87h0l-1.9,5.4h3.83Z"/><path class="cls-2" d="M107.47,212.47a.65.65,0,0,1-.06.29.45.45,0,0,1-.15.19.78.78,0,0,1-.2.11l-.23,0h-.49a1.62,1.62,0,0,1-.4-.05.88.88,0,0,1-.32-.16,1.42,1.42,0,0,1-.31-.33A5.37,5.37,0,0,1,105,212l-3.36-6.15c-.17-.32-.35-.65-.53-1s-.34-.69-.5-1h0c0,.4,0,.81,0,1.23s0,.83,0,1.25v6.53a.17.17,0,0,1,0,.11.18.18,0,0,1-.12.08,1,1,0,0,1-.22.05,1.79,1.79,0,0,1-.36,0,1.69,1.69,0,0,1-.35,0,.8.8,0,0,1-.22-.05.18.18,0,0,1-.12-.08.25.25,0,0,1,0-.11v-10a.54.54,0,0,1,.2-.47.66.66,0,0,1,.42-.14h.72a1.8,1.8,0,0,1,.43,0,.83.83,0,0,1,.3.14,1.3,1.3,0,0,1,.27.26c.08.12.17.26.27.43l2.58,4.75.46.85.43.82.4.79c.14.26.27.52.4.78h0c0-.44,0-.9,0-1.38v-7.24a.2.2,0,0,1,0-.11l.12-.09a1,1,0,0,1,.23,0l.36,0,.34,0a1,1,0,0,1,.23,0,.35.35,0,0,1,.11.09.15.15,0,0,1,0,.11Z"/><path class="cls-2" d="M118.87,207.5a7.3,7.3,0,0,1-.37,2.45,4.26,4.26,0,0,1-2.79,2.77,7.6,7.6,0,0,1-2.43.35h-2.34a.66.66,0,0,1-.37-.13.56.56,0,0,1-.17-.46v-9.65a.53.53,0,0,1,.17-.45.6.6,0,0,1,.37-.13h2.5a7.14,7.14,0,0,1,2.42.36,4.25,4.25,0,0,1,2.66,2.7A6.45,6.45,0,0,1,118.87,207.5Zm-1.54.05a6.11,6.11,0,0,0-.22-1.63,3.52,3.52,0,0,0-.7-1.31,3.18,3.18,0,0,0-1.19-.86,4.77,4.77,0,0,0-1.87-.31h-1.49v8.42h1.51a5.4,5.4,0,0,0,1.78-.26,3,3,0,0,0,1.21-.79,3.68,3.68,0,0,0,.73-1.34A6.8,6.8,0,0,0,117.33,207.55Z"/><path class="cls-2" d="M131,210a3,3,0,0,1-.28,1.35,2.91,2.91,0,0,1-.79,1,3.26,3.26,0,0,1-1.2.62,4.93,4.93,0,0,1-1.47.21,5.56,5.56,0,0,1-1-.09,5.68,5.68,0,0,1-.84-.22,3.66,3.66,0,0,1-.62-.28,1.55,1.55,0,0,1-.35-.24.66.66,0,0,1-.15-.26,1.53,1.53,0,0,1,0-.41,2.82,2.82,0,0,1,0-.31.71.71,0,0,1,.06-.19.24.24,0,0,1,.08-.11.21.21,0,0,1,.12,0,.71.71,0,0,1,.34.15,6.25,6.25,0,0,0,.55.3,5,5,0,0,0,.82.32,3.86,3.86,0,0,0,1.12.14,3,3,0,0,0,.87-.12,1.93,1.93,0,0,0,.68-.36,1.5,1.5,0,0,0,.44-.56,1.84,1.84,0,0,0,.15-.76,1.43,1.43,0,0,0-.21-.79,2.16,2.16,0,0,0-.56-.57,6,6,0,0,0-.8-.45L127,208c-.31-.14-.61-.3-.91-.47a4.27,4.27,0,0,1-.79-.61,2.82,2.82,0,0,1-.56-.83,2.59,2.59,0,0,1-.22-1.13,2.79,2.79,0,0,1,.25-1.21,2.54,2.54,0,0,1,.7-.89,3,3,0,0,1,1.06-.54,4.43,4.43,0,0,1,1.34-.19,4.59,4.59,0,0,1,.73.06,4.78,4.78,0,0,1,.7.17,3.5,3.5,0,0,1,.58.23,2.14,2.14,0,0,1,.34.21.58.58,0,0,1,.11.13s0,.07,0,.11a.88.88,0,0,1,0,.17,2,2,0,0,1,0,.26,2.26,2.26,0,0,1,0,.27,1,1,0,0,1,0,.2.23.23,0,0,1-.07.11.15.15,0,0,1-.11,0,.67.67,0,0,1-.29-.12l-.49-.26a3.82,3.82,0,0,0-.69-.27,3,3,0,0,0-.89-.12,2.45,2.45,0,0,0-.8.12,1.63,1.63,0,0,0-.56.33,1.18,1.18,0,0,0-.33.47,1.67,1.67,0,0,0-.11.59,1.42,1.42,0,0,0,.21.78,2.2,2.2,0,0,0,.57.57,4.67,4.67,0,0,0,.8.46l.92.42c.31.15.62.3.92.47a4.05,4.05,0,0,1,.81.6,3.17,3.17,0,0,1,.57.82A2.76,2.76,0,0,1,131,210Z"/><path class="cls-2" d="M139.21,212.47a2.13,2.13,0,0,1,0,.27.48.48,0,0,1-.06.18.27.27,0,0,1-.1.11.21.21,0,0,1-.12,0h-5.29a.66.66,0,0,1-.37-.13.56.56,0,0,1-.17-.46v-9.65a.53.53,0,0,1,.17-.45.6.6,0,0,1,.37-.13h5.23a.21.21,0,0,1,.12,0,.2.2,0,0,1,.09.11.71.71,0,0,1,.06.19,1.91,1.91,0,0,1,0,.28,2,2,0,0,1,0,.26.63.63,0,0,1-.06.18.2.2,0,0,1-.09.11.21.21,0,0,1-.12,0h-4.31v3.4h3.7a.27.27,0,0,1,.12,0,.24.24,0,0,1,.09.11.38.38,0,0,1,.06.18,2.16,2.16,0,0,1,0,.28,2,2,0,0,1,0,.26.38.38,0,0,1-.06.17.18.18,0,0,1-.09.1l-.12,0h-3.7v3.87h4.37a.21.21,0,0,1,.12,0,.36.36,0,0,1,.1.11.42.42,0,0,1,.06.18A2.16,2.16,0,0,1,139.21,212.47Z"/><path class="cls-2" d="M148.94,212.85a.27.27,0,0,1,0,.12.17.17,0,0,1-.11.08.89.89,0,0,1-.24,0l-.4,0-.37,0a.58.58,0,0,1-.22-.06.27.27,0,0,1-.13-.1.54.54,0,0,1-.09-.17l-1-2.55c-.12-.29-.24-.55-.37-.8a2.67,2.67,0,0,0-.45-.62,1.76,1.76,0,0,0-.63-.41,2.17,2.17,0,0,0-.86-.15h-1v4.61a.28.28,0,0,1,0,.12.35.35,0,0,1-.12.07,1,1,0,0,1-.22.05,1.86,1.86,0,0,1-.36,0,1.69,1.69,0,0,1-.35,0l-.23-.05a.35.35,0,0,1-.12-.07.27.27,0,0,1,0-.12v-10a.5.5,0,0,1,.18-.45.58.58,0,0,1,.37-.13h2.34c.27,0,.51,0,.69,0l.5,0a4.16,4.16,0,0,1,1.13.35,2.61,2.61,0,0,1,.82.59,2.38,2.38,0,0,1,.5.82,3.05,3.05,0,0,1,.16,1,3,3,0,0,1-.15,1,2.27,2.27,0,0,1-.43.76,2.66,2.66,0,0,1-.67.57,3.75,3.75,0,0,1-.88.41,2.07,2.07,0,0,1,.5.3,2.41,2.41,0,0,1,.41.43,3.59,3.59,0,0,1,.36.58,7.16,7.16,0,0,1,.34.73l1,2.39a3.9,3.9,0,0,1,.15.42A.54.54,0,0,1,148.94,212.85Zm-2.21-7.6a1.88,1.88,0,0,0-.29-1.08,1.63,1.63,0,0,0-1-.63,2.18,2.18,0,0,0-.48-.08,6.54,6.54,0,0,0-.7,0h-1.23v3.65h1.43a3.31,3.31,0,0,0,1-.14,2,2,0,0,0,.7-.38,1.5,1.5,0,0,0,.41-.59A1.88,1.88,0,0,0,146.73,205.25Z"/><path class="cls-2" d="M155.27,212.81a.35.35,0,0,1-.09.16l-.17.09-.27,0-.41,0H154l-.24,0-.18,0a.33.33,0,0,1-.12-.05.2.2,0,0,1-.08-.08l-.06-.11-3.6-10.05a1.22,1.22,0,0,1-.07-.3.19.19,0,0,1,.07-.17.46.46,0,0,1,.25-.08h.84a.87.87,0,0,1,.21,0,.41.41,0,0,1,.12.09.91.91,0,0,1,.07.14l3.16,9.11h0l3.07-9.09a.77.77,0,0,1,.06-.15.25.25,0,0,1,.12-.1,1.19,1.19,0,0,1,.24,0h.41a2.37,2.37,0,0,1,.41,0,.3.3,0,0,1,.21.08.22.22,0,0,1,0,.17,1.29,1.29,0,0,1-.09.29Z"/><path class="cls-2" d="M162.18,212.85a.28.28,0,0,1,0,.12.22.22,0,0,1-.12.07.9.9,0,0,1-.22.05,1.86,1.86,0,0,1-.36,0,1.83,1.83,0,0,1-.35,0l-.23-.05a.23.23,0,0,1-.11-.07.19.19,0,0,1,0-.12V202.46a.15.15,0,0,1,0-.11.24.24,0,0,1,.13-.08,1,1,0,0,1,.23-.05,1.62,1.62,0,0,1,.33,0,1.94,1.94,0,0,1,.36,0,.9.9,0,0,1,.22.05.18.18,0,0,1,.12.08.21.21,0,0,1,0,.11Z"/><path class="cls-2" d="M172.46,211.53a1.77,1.77,0,0,1,0,.24.74.74,0,0,1,0,.17.58.58,0,0,1,0,.14l-.12.14a2.89,2.89,0,0,1-.36.26,4.82,4.82,0,0,1-.68.33,6.06,6.06,0,0,1-.93.28,5.73,5.73,0,0,1-1.14.11,5.2,5.2,0,0,1-1.94-.35,4,4,0,0,1-1.47-1,4.69,4.69,0,0,1-.94-1.69,7.48,7.48,0,0,1-.32-2.32,7.39,7.39,0,0,1,.35-2.4,5.09,5.09,0,0,1,1-1.79,4.3,4.3,0,0,1,1.53-1.11,4.84,4.84,0,0,1,2-.39,4.73,4.73,0,0,1,.93.09,5.88,5.88,0,0,1,.83.22,3.57,3.57,0,0,1,.68.31,2.39,2.39,0,0,1,.42.29.8.8,0,0,1,.14.17.35.35,0,0,1,.06.14.84.84,0,0,1,0,.19,1.84,1.84,0,0,1,0,.26,2.16,2.16,0,0,1,0,.28,1,1,0,0,1-.05.2.24.24,0,0,1-.08.11.16.16,0,0,1-.12,0,.6.6,0,0,1-.33-.16c-.15-.11-.33-.23-.55-.36a4.68,4.68,0,0,0-.83-.36,3.57,3.57,0,0,0-1.16-.16,3.12,3.12,0,0,0-1.34.28,3,3,0,0,0-1,.85,4.37,4.37,0,0,0-.66,1.37,6.46,6.46,0,0,0-.24,1.84,6.6,6.6,0,0,0,.23,1.82,3.71,3.71,0,0,0,.65,1.32,2.65,2.65,0,0,0,1,.81,3.46,3.46,0,0,0,1.4.27,3.63,3.63,0,0,0,1.15-.16,4.81,4.81,0,0,0,.84-.36c.23-.13.42-.25.57-.35a.62.62,0,0,1,.35-.16l.1,0a.2.2,0,0,1,.07.1,1.73,1.73,0,0,1,0,.2A2.82,2.82,0,0,1,172.46,211.53Z"/><path class="cls-2" d="M180.53,212.47a2.13,2.13,0,0,1,0,.27.48.48,0,0,1-.06.18.35.35,0,0,1-.09.11.28.28,0,0,1-.13,0H175a.64.64,0,0,1-.37-.13.53.53,0,0,1-.18-.46v-9.65a.5.5,0,0,1,.18-.45.58.58,0,0,1,.37-.13h5.22a.28.28,0,0,1,.13,0,.35.35,0,0,1,.09.11.74.74,0,0,1,.05.19,1.1,1.1,0,0,1,0,.28,1.06,1.06,0,0,1,0,.26.65.65,0,0,1-.05.18.35.35,0,0,1-.09.11.28.28,0,0,1-.13,0h-4.3v3.4h3.69a.21.21,0,0,1,.12,0,.36.36,0,0,1,.1.11.56.56,0,0,1,.05.18,2.16,2.16,0,0,1,0,.28,2,2,0,0,1,0,.26.58.58,0,0,1-.05.17.24.24,0,0,1-.1.1.21.21,0,0,1-.12,0h-3.69v3.87h4.36a.28.28,0,0,1,.13,0,.53.53,0,0,1,.09.11.42.42,0,0,1,.06.18A2.16,2.16,0,0,1,180.53,212.47Z"/><path class="cls-2" d="M188.66,210a3,3,0,0,1-.28,1.35,2.94,2.94,0,0,1-.8,1,3.14,3.14,0,0,1-1.19.62,5,5,0,0,1-1.48.21,5.38,5.38,0,0,1-1-.09,5.09,5.09,0,0,1-.84-.22,3.79,3.79,0,0,1-.63-.28,1.69,1.69,0,0,1-.34-.24.56.56,0,0,1-.15-.26,1.47,1.47,0,0,1-.05-.41,2.54,2.54,0,0,1,0-.31.74.74,0,0,1,0-.19.2.2,0,0,1,.09-.11.21.21,0,0,1,.12,0,.65.65,0,0,1,.33.15c.15.09.33.19.56.3a5,5,0,0,0,.82.32A3.74,3.74,0,0,0,185,212a3.07,3.07,0,0,0,.88-.12,1.93,1.93,0,0,0,.68-.36A1.48,1.48,0,0,0,187,211a1.7,1.7,0,0,0,.16-.76,1.43,1.43,0,0,0-.21-.79,2.21,2.21,0,0,0-.57-.57,5.3,5.3,0,0,0-.79-.45l-.92-.42c-.31-.14-.61-.3-.91-.47a4,4,0,0,1-.79-.61,3.06,3.06,0,0,1-.57-.83,2.75,2.75,0,0,1-.21-1.13,2.79,2.79,0,0,1,.25-1.21,2.43,2.43,0,0,1,.7-.89,3,3,0,0,1,1.06-.54,4.41,4.41,0,0,1,1.33-.19,4.62,4.62,0,0,1,.74.06,4.78,4.78,0,0,1,.7.17,3.89,3.89,0,0,1,.58.23,2.14,2.14,0,0,1,.34.21.35.35,0,0,1,.1.13.36.36,0,0,1,0,.11.86.86,0,0,1,0,.17,2,2,0,0,1,0,.26c0,.1,0,.19,0,.27s0,.14,0,.2a.23.23,0,0,1-.07.11.17.17,0,0,1-.11,0,.74.74,0,0,1-.3-.12l-.48-.26a4.52,4.52,0,0,0-.69-.27,3,3,0,0,0-.89-.12,2.41,2.41,0,0,0-.8.12,1.54,1.54,0,0,0-.56.33,1.18,1.18,0,0,0-.33.47,1.47,1.47,0,0,0-.11.59,1.42,1.42,0,0,0,.21.78,2.32,2.32,0,0,0,.56.57,5.2,5.2,0,0,0,.81.46l.92.42c.31.15.62.3.92.47a3.72,3.72,0,0,1,.8.6,2.75,2.75,0,0,1,.57.82A2.6,2.6,0,0,1,188.66,210Z"/><path class="cls-3" d="M31,180.09a25.24,25.24,0,0,1-.55,5.42,10.53,10.53,0,0,1-1.88,4.19,8.71,8.71,0,0,1-3.5,2.67,13.51,13.51,0,0,1-5.38.94,14,14,0,0,1-4.15-.63,10.78,10.78,0,0,1-1.56-.62,3,3,0,0,1-.88-.55,2.67,2.67,0,0,1-.35-.46,2.42,2.42,0,0,1-.24-.56,4.81,4.81,0,0,1-.14-.81q0-.48,0-1.17c0-.56,0-1,.05-1.4a2.69,2.69,0,0,1,.22-.89,1.1,1.1,0,0,1,.37-.46,1,1,0,0,1,.53-.13,1.63,1.63,0,0,1,.8.29q.49.29,1.17.63a11,11,0,0,0,1.59.63,6.68,6.68,0,0,0,2.11.29,6.84,6.84,0,0,0,2.27-.33A3.13,3.13,0,0,0,23,185.93a6.47,6.47,0,0,0,.94-2.44,21.91,21.91,0,0,0,.31-4.05V143.86a.89.89,0,0,1,.15-.5A1.2,1.2,0,0,1,25,143a4.39,4.39,0,0,1,1-.23,14.6,14.6,0,0,1,1.62-.07,14.89,14.89,0,0,1,1.61.07,4,4,0,0,1,1,.23,1.32,1.32,0,0,1,.55.39.79.79,0,0,1,.18.5Z"/><path class="cls-4" d="M70.14,191.7a.79.79,0,0,1-.31.69,2.37,2.37,0,0,1-.86.35,9.13,9.13,0,0,1-1.61.11,9.84,9.84,0,0,1-1.62-.11,2,2,0,0,1-.88-.35.85.85,0,0,1-.27-.69v-3.46A17.56,17.56,0,0,1,59.44,192a13.92,13.92,0,0,1-6,1.34,16.75,16.75,0,0,1-5-.71,10.88,10.88,0,0,1-3.84-2.06,9.23,9.23,0,0,1-2.46-3.3,10.73,10.73,0,0,1-.88-4.46,10.14,10.14,0,0,1,1.21-5.07,10,10,0,0,1,3.48-3.57A17.49,17.49,0,0,1,51.48,172a35.31,35.31,0,0,1,7.39-.71h4.86v-2.69a13,13,0,0,0-.44-3.53,6,6,0,0,0-1.38-2.56A5.91,5.91,0,0,0,59.42,161a11.66,11.66,0,0,0-3.75-.52,15.29,15.29,0,0,0-4.29.55,25.43,25.43,0,0,0-3.32,1.23c-1,.45-1.75.86-2.39,1.23a3.39,3.39,0,0,1-1.43.56,1,1,0,0,1-.55-.15,1.48,1.48,0,0,1-.41-.47,2.38,2.38,0,0,1-.25-.78,6.93,6.93,0,0,1-.08-1.06,6.7,6.7,0,0,1,.14-1.52,2.16,2.16,0,0,1,.66-1.05,8.27,8.27,0,0,1,1.82-1.18,22.21,22.21,0,0,1,3-1.23,29.08,29.08,0,0,1,3.68-.92,22.7,22.7,0,0,1,4-.36,21.69,21.69,0,0,1,6.46.84,10.52,10.52,0,0,1,4.3,2.48,9.56,9.56,0,0,1,2.39,4.06,19.43,19.43,0,0,1,.74,5.64Zm-6.41-15.79H58.21a20.88,20.88,0,0,0-4.62.44,9.77,9.77,0,0,0-3.25,1.3,5.4,5.4,0,0,0-1.89,2.08,6.05,6.05,0,0,0-.61,2.78,5.53,5.53,0,0,0,1.74,4.29,7,7,0,0,0,4.87,1.59,9.24,9.24,0,0,0,4.72-1.26,20.57,20.57,0,0,0,4.56-3.89Z"/><path class="cls-5" d="M109.54,157c0,.1,0,.21,0,.33a2.7,2.7,0,0,1-.06.36c0,.13-.06.27-.1.42s-.08.32-.13.5l-12,32.86a2.12,2.12,0,0,1-.42.69,1.66,1.66,0,0,1-.76.42,6.42,6.42,0,0,1-1.29.21c-.52,0-1.17.06-2,.06a17.82,17.82,0,0,1-2-.08,5.81,5.81,0,0,1-1.27-.23,1.88,1.88,0,0,1-.77-.42,2.1,2.1,0,0,1-.43-.65l-12-32.86c-.1-.3-.19-.57-.25-.8a2.92,2.92,0,0,1-.12-.52c0-.12,0-.21,0-.29a.91.91,0,0,1,.16-.54,1,1,0,0,1,.52-.36,3.82,3.82,0,0,1,1-.18c.41,0,.91,0,1.51,0,.76,0,1.36,0,1.82.05a3.77,3.77,0,0,1,1,.21,1.32,1.32,0,0,1,.55.39,3,3,0,0,1,.34.57l9.93,28.52.16.46.12-.46L103,157.11a1.26,1.26,0,0,1,.27-.57,1.47,1.47,0,0,1,.57-.39,3.68,3.68,0,0,1,1-.21c.44,0,1-.05,1.71-.05s1.09,0,1.48,0a2.57,2.57,0,0,1,.92.2,1.07,1.07,0,0,1,.47.36A.94.94,0,0,1,109.54,157Z"/><path class="cls-6" d="M123.31,191.66a.81.81,0,0,1-.16.52,1.18,1.18,0,0,1-.5.36,3.45,3.45,0,0,1-1,.23,11.92,11.92,0,0,1-1.61.08,11.5,11.5,0,0,1-1.56-.08,3.61,3.61,0,0,1-1-.23,1,1,0,0,1-.51-.36.93.93,0,0,1-.13-.52V140.32a1.08,1.08,0,0,1,.13-.54,1,1,0,0,1,.51-.38,4,4,0,0,1,1-.23,13.41,13.41,0,0,1,1.56-.08,13.85,13.85,0,0,1,1.61.08,3.83,3.83,0,0,1,1,.23,1.12,1.12,0,0,1,.5.38.93.93,0,0,1,.16.54Z"/><path class="cls-7" d="M142.44,145.39a4.11,4.11,0,0,1-.86,3,6.56,6.56,0,0,1-6.28,0,4,4,0,0,1-.84-3,4.12,4.12,0,0,1,.86-3,4.69,4.69,0,0,1,3.17-.81,4.58,4.58,0,0,1,3.11.79A4,4,0,0,1,142.44,145.39Zm-.74,46.27a.81.81,0,0,1-.16.52,1.15,1.15,0,0,1-.51.36,3.29,3.29,0,0,1-1,.23,12,12,0,0,1-1.61.08,11.41,11.41,0,0,1-1.56-.08,3.61,3.61,0,0,1-1-.23,1,1,0,0,1-.51-.36.94.94,0,0,1-.14-.52V157.08a1,1,0,0,1,.14-.5,1,1,0,0,1,.51-.39,4,4,0,0,1,1-.23,13.57,13.57,0,0,1,1.56-.07,14.29,14.29,0,0,1,1.61.07,3.64,3.64,0,0,1,1,.23,1.12,1.12,0,0,1,.51.39.83.83,0,0,1,.16.5Z"/><path class="cls-8" d="M184,191.66a.86.86,0,0,1-.15.52,1.28,1.28,0,0,1-.51.36,3.36,3.36,0,0,1-1,.23,11.57,11.57,0,0,1-1.57.08,11.86,11.86,0,0,1-1.6-.08,3.36,3.36,0,0,1-1-.23,1.28,1.28,0,0,1-.51-.36.86.86,0,0,1-.15-.52V171.41a19.81,19.81,0,0,0-.47-4.77,10,10,0,0,0-1.37-3.11,5.93,5.93,0,0,0-2.33-2,7.5,7.5,0,0,0-3.31-.69,8.51,8.51,0,0,0-4.85,1.69,26.19,26.19,0,0,0-5.08,5v24.17a.87.87,0,0,1-.16.52,1.15,1.15,0,0,1-.51.36,3.28,3.28,0,0,1-1,.23,11.76,11.76,0,0,1-1.6.08,11.32,11.32,0,0,1-1.56-.08,3.52,3.52,0,0,1-1-.23,1,1,0,0,1-.51-.36.94.94,0,0,1-.14-.52V157.08a1,1,0,0,1,.12-.52,1.06,1.06,0,0,1,.47-.39,2.8,2.8,0,0,1,.9-.23,14.33,14.33,0,0,1,1.45-.05,14.17,14.17,0,0,1,1.42.05,2.42,2.42,0,0,1,.88.23,1.27,1.27,0,0,1,.45.39.86.86,0,0,1,.14.52v4.57a21.67,21.67,0,0,1,5.93-4.79,13,13,0,0,1,6-1.51,13.46,13.46,0,0,1,5.92,1.17,10.63,10.63,0,0,1,3.9,3.13,12.44,12.44,0,0,1,2.13,4.59,26.93,26.93,0,0,1,.64,6.32Z"/><path class="cls-9" d="M98.56,11.58a34.35,34.35,0,0,0,4.77,12.2c5.29,8.68,10.73,17.27,16.16,25.86,4.75,7.52,9.62,15,13.43,23,2.93,6.17,5.25,12.57,5.93,19.41,1.44,14.67-3.2,26.92-14.9,36.22-8.13,6.45-17.47,9.06-27.74,8.58-13.3-.62-23.79-6.44-31.55-17.21A37.51,37.51,0,0,1,58,102C56.9,93.22,58.86,85,62.17,76.9c3-7.43,7.29-14.17,11.57-20.91C78.84,48,84,40,89,31.94A89.64,89.64,0,0,0,97.77,14C98,13.29,98.25,12.55,98.56,11.58Z"/><path class="cls-2" d="M95.25,77.69c0,3.9,2.06,7.85,3.91,11.23,2.33,4.27,5.06,8.31,7.77,12.34,1.22,1.81,2.44,3.61,3.61,5.46,1.28,2,2.42,4.15,3.64,6.23,3.07,5.24,6.32,10.38,9.54,15.53l.13-.1c11.82-9.3,16.51-21.57,15.05-36.27-.68-6.84-3-13.25-6-19.43a163.93,163.93,0,0,0-9.59-16.8l-1,.63a88.62,88.62,0,0,0-9.93,6.93C106.7,68.23,101.46,73.53,95.25,77.69Z"/><path class="cls-1" d="M128.81,85c-.3,2.92-1.92,8.55-9.81,8.93a.35.35,0,0,1,0,.08c2.43.21,9,1.53,8.92,9.57,0,0,.59-8,9.66-9C137.63,94.61,129.05,94,128.81,85Z"/><path class="cls-1" d="M116.31,78.53h0c-.26,2.42-1.64,7-8.11,7.22v0c1.8.13,7.41,1.06,7.43,7.68h0c.11-.9,1.07-6.45,7.87-7.19C123.51,86.29,116.55,85.8,116.31,78.53Z"/><path class="cls-10" d="M121.17,127.93c-8.5-13.64-17.15-28.35-25.79-42.19C85,97.85,81.54,114.29,69.43,125.53c13.84,13.84,37.19,15.57,52.89,4.23C121.91,129.14,121.53,128.52,121.17,127.93Z"/><circle class="cls-1" cx="92.14" cy="52.86" r="12.08"/><polygon class="cls-1" points="84.51 75.74 135.19 46.59 98.7 79.34 128.89 138.64 84.51 75.74"/><path class="cls-1" d="M72.26,125.1,98.85,79.75l-2.26-.83L69.46,125.2C70.39,125.15,71.32,125.12,72.26,125.1Z"/><rect class="cls-1" x="63.89" y="122.35" width="14.69" height="2.77"/></svg>