<svg id="Layer_1" data-name="Layer 1" xmlns="http://www.w3.org/2000/svg" xmlns:xlink="http://www.w3.org/1999/xlink" viewBox="0 0 200 230.29"><defs><style>.cls-1{fill:#5ea84d;}.cls-2{fill:url(#linear-gradient);}.cls-3{fill:url(#linear-gradient-2);}.cls-4{fill:url(#linear-gradient-3);}.cls-5{fill:url(#linear-gradient-4);}.cls-6{fill:url(#linear-gradient-5);}.cls-7{fill:url(#linear-gradient-6);}.cls-8{fill:#216bb3;}.cls-9{fill:#fff;}.cls-10{fill:#2aa2db;}</style><linearGradient id="linear-gradient" x1="14.53" y1="144.81" x2="28.04" y2="190.31" gradientUnits="userSpaceOnUse"><stop offset="0" stop-color="#2aa2db"/><stop offset="0.96" stop-color="#216bb3"/></linearGradient><linearGradient id="linear-gradient-2" x1="49.2" y1="155.17" x2="60.71" y2="193.94" xlink:href="#linear-gradient"/><linearGradient id="linear-gradient-3" x1="90.29" y1="150.8" x2="101.81" y2="189.61" xlink:href="#linear-gradient"/><linearGradient id="linear-gradient-4" x1="111.7" y1="139.85" x2="126.62" y2="190.12" xlink:href="#linear-gradient"/><linearGradient id="linear-gradient-5" x1="130.59" y1="142.34" x2="144.79" y2="190.18" xlink:href="#linear-gradient"/><linearGradient id="linear-gradient-6" x1="160.44" y1="153.04" x2="172.73" y2="194.44" xlink:href="#linear-gradient"/></defs><path class="cls-1" d="M18.62,210.55c0,.09,0,.16,0,.23s0,.13,0,.18a.52.52,0,0,1-.06.13.47.47,0,0,1-.12.14,2,2,0,0,1-.35.26,5.43,5.43,0,0,1-.68.33,6.06,6.06,0,0,1-.93.28,5.8,5.8,0,0,1-1.14.11,5.2,5.2,0,0,1-1.94-.35,3.76,3.76,0,0,1-1.47-1,4.61,4.61,0,0,1-.94-1.69,8.25,8.25,0,0,1,0-4.72,5,5,0,0,1,1-1.78,4.16,4.16,0,0,1,1.53-1.12,5.07,5.07,0,0,1,2.9-.3,6.26,6.26,0,0,1,.83.22,4.78,4.78,0,0,1,.68.31,2.36,2.36,0,0,1,.41.29.88.88,0,0,1,.15.17l.06.14s0,.12,0,.19a2,2,0,0,1,0,.26,2.35,2.35,0,0,1,0,.28.83.83,0,0,1,0,.2.38.38,0,0,1-.09.12.2.2,0,0,1-.11,0,.6.6,0,0,1-.33-.16,5.55,5.55,0,0,0-.56-.36,4.56,4.56,0,0,0-.82-.36,3.61,3.61,0,0,0-1.16-.16,3,3,0,0,0-1.34.29,2.78,2.78,0,0,0-1,.85,4,4,0,0,0-.66,1.36,7.24,7.24,0,0,0,0,3.66,3.84,3.84,0,0,0,.65,1.33,2.72,2.72,0,0,0,1,.8,3.45,3.45,0,0,0,1.39.27,3.7,3.7,0,0,0,1.16-.16,4.32,4.32,0,0,0,.83-.35,4.11,4.11,0,0,0,.57-.36.78.78,0,0,1,.35-.16.2.2,0,0,1,.11,0s.05.05.07.09a.94.94,0,0,1,0,.2A2.58,2.58,0,0,1,18.62,210.55Z"/><path class="cls-1" d="M26.27,211.45a2,2,0,0,1,0,.28.74.74,0,0,1-.05.19.25.25,0,0,1-.1.12.25.25,0,0,1-.13,0H21.1a.66.66,0,0,1-.37-.13.56.56,0,0,1-.17-.46v-10a.21.21,0,0,1,0-.12.23.23,0,0,1,.12-.08,1,1,0,0,1,.23-.05,1.83,1.83,0,0,1,.35,0,1.78,1.78,0,0,1,.35,0,1,1,0,0,1,.23.05.23.23,0,0,1,.12.08.21.21,0,0,1,0,.12v9.35H26a.18.18,0,0,1,.13,0,.27.27,0,0,1,.1.11.74.74,0,0,1,.05.19A2,2,0,0,1,26.27,211.45Z"/><path class="cls-1" d="M34,211.48a2.13,2.13,0,0,1,0,.27.53.53,0,0,1-.06.19.24.24,0,0,1-.1.1.17.17,0,0,1-.12,0H28.43a.66.66,0,0,1-.37-.13.56.56,0,0,1-.17-.46v-9.65a.54.54,0,0,1,.17-.45.6.6,0,0,1,.37-.13h5.23a.24.24,0,0,1,.12,0,.2.2,0,0,1,.09.11.71.71,0,0,1,.06.19,2,2,0,0,1,0,.28,1.84,1.84,0,0,1,0,.26.71.71,0,0,1-.06.19.22.22,0,0,1-.09.1.24.24,0,0,1-.12,0H29.35v3.4h3.7a.19.19,0,0,1,.12,0,.22.22,0,0,1,.09.1.48.48,0,0,1,.06.18,2.16,2.16,0,0,1,0,.28,1.84,1.84,0,0,1,0,.26.48.48,0,0,1-.06.18.2.2,0,0,1-.09.09.27.27,0,0,1-.12,0h-3.7v3.87h4.37a.17.17,0,0,1,.12,0,.24.24,0,0,1,.1.1.48.48,0,0,1,.06.18A2.16,2.16,0,0,1,34,211.48Z"/><path class="cls-1" d="M44.46,211.57a.79.79,0,0,1,.07.29.18.18,0,0,1-.06.18.47.47,0,0,1-.22.07l-.43,0H43.4a1.11,1.11,0,0,1-.24-.05A.25.25,0,0,1,43,212l-.07-.12L42,209.23H37.45l-.9,2.6a.32.32,0,0,1-.07.13.34.34,0,0,1-.13.1.89.89,0,0,1-.23.05l-.38,0-.41,0a.46.46,0,0,1-.22-.08.24.24,0,0,1-.06-.17,1.05,1.05,0,0,1,.07-.3l3.7-10.05a.38.38,0,0,1,.09-.15.31.31,0,0,1,.16-.09.93.93,0,0,1,.27-.05h.87a1,1,0,0,1,.29.05.34.34,0,0,1,.17.09.44.44,0,0,1,.1.16Zm-4.74-8.87h0l-1.9,5.39h3.83Z"/><path class="cls-1" d="M54.63,211.48a.62.62,0,0,1-.06.29.58.58,0,0,1-.15.19.53.53,0,0,1-.21.11.85.85,0,0,1-.23,0H53.5a1.59,1.59,0,0,1-.4,0,1,1,0,0,1-.33-.17,1.64,1.64,0,0,1-.3-.33,3.19,3.19,0,0,1-.33-.54l-3.36-6.15c-.18-.32-.35-.65-.53-1s-.35-.69-.5-1h0l0,1.23c0,.42,0,.84,0,1.25v6.53a.21.21,0,0,1,0,.11.19.19,0,0,1-.12.09l-.23.05-.35,0-.36,0-.22-.05a.2.2,0,0,1-.11-.09.15.15,0,0,1,0-.11v-10a.56.56,0,0,1,.2-.48.68.68,0,0,1,.42-.14h.72a1.66,1.66,0,0,1,.42,0,.8.8,0,0,1,.31.14,1,1,0,0,1,.26.27,2.3,2.3,0,0,1,.27.43l2.59,4.75c.15.29.31.57.46.84s.29.55.42.82l.41.79c.14.26.27.52.4.78h0c0-.44,0-.9,0-1.37s0-.94,0-1.38V201.5a.25.25,0,0,1,0-.11.31.31,0,0,1,.12-.09,1,1,0,0,1,.22-.05l.37,0,.34,0a.8.8,0,0,1,.22.05.31.31,0,0,1,.12.09.17.17,0,0,1,0,.11Z"/><path class="cls-1" d="M59,211.86a.27.27,0,0,1,0,.12.36.36,0,0,1-.12.08l-.23.05-.35,0-.35,0-.23-.05a.23.23,0,0,1-.12-.08.27.27,0,0,1,0-.12V201.48a.21.21,0,0,1,0-.12.32.32,0,0,1,.13-.08l.23-.05a1.72,1.72,0,0,1,.34,0,1.78,1.78,0,0,1,.35,0l.23.05a.36.36,0,0,1,.12.08.21.21,0,0,1,0,.12Z"/><path class="cls-1" d="M70.27,211.48a.63.63,0,0,1,0,.29.58.58,0,0,1-.15.19.53.53,0,0,1-.21.11.91.91,0,0,1-.23,0h-.48a1.54,1.54,0,0,1-.4,0,.87.87,0,0,1-.33-.17,2,2,0,0,1-.31-.33,4.06,4.06,0,0,1-.32-.54l-3.36-6.15c-.18-.32-.36-.65-.54-1s-.34-.69-.49-1h0c0,.41,0,.82,0,1.23s0,.84,0,1.25v6.53a.2.2,0,0,1,0,.11.27.27,0,0,1-.12.09l-.23.05-.35,0-.36,0-.22-.05A.27.27,0,0,1,62,212a.2.2,0,0,1,0-.11v-10a.55.55,0,0,1,.19-.48.73.73,0,0,1,.42-.14h.72a1.74,1.74,0,0,1,.43,0,.87.87,0,0,1,.31.14,1,1,0,0,1,.26.27,2.3,2.3,0,0,1,.27.43l2.58,4.75.46.84.43.82.41.79.4.78h0c0-.44,0-.9,0-1.37V201.5a.17.17,0,0,1,0-.11.31.31,0,0,1,.12-.09.9.9,0,0,1,.22-.05l.37,0,.34,0a.9.9,0,0,1,.22.05.41.41,0,0,1,.12.09.23.23,0,0,1,0,.11Z"/><path class="cls-1" d="M81.48,202.73a2.16,2.16,0,0,1,0,.28.83.83,0,0,1,0,.2.2.2,0,0,1-.09.11.15.15,0,0,1-.11,0,.92.92,0,0,1-.34-.16,5,5,0,0,0-.64-.35,5.15,5.15,0,0,0-1-.35,4.75,4.75,0,0,0-1.33-.16,4.05,4.05,0,0,0-1.63.32,3.59,3.59,0,0,0-1.23.91,4.07,4.07,0,0,0-.77,1.37,5.7,5.7,0,0,0,0,3.56,3.72,3.72,0,0,0,.81,1.35,3.41,3.41,0,0,0,1.24.84A4.27,4.27,0,0,0,78,211a4.59,4.59,0,0,0,1-.12,4,4,0,0,0,1-.36v-3.15H77.43a.23.23,0,0,1-.21-.15,1,1,0,0,1-.08-.44,2.13,2.13,0,0,1,0-.27.38.38,0,0,1,.06-.18.2.2,0,0,1,.09-.11.21.21,0,0,1,.12,0h3.5a.52.52,0,0,1,.36.13.52.52,0,0,1,.12.19.68.68,0,0,1,0,.26v4.13a.84.84,0,0,1-.07.37.67.67,0,0,1-.33.28c-.16.08-.38.17-.64.27s-.53.17-.81.24-.55.11-.84.15a7.89,7.89,0,0,1-.84,0,6.26,6.26,0,0,1-2.28-.39,4.65,4.65,0,0,1-1.7-1.11A4.79,4.79,0,0,1,72.88,209a7,7,0,0,1,0-4.57A5.11,5.11,0,0,1,74,202.65a5,5,0,0,1,1.73-1.14,6,6,0,0,1,2.24-.4,5.57,5.57,0,0,1,1.18.11,6.63,6.63,0,0,1,1,.25,3.88,3.88,0,0,1,.73.32,2.14,2.14,0,0,1,.4.28.56.56,0,0,1,.16.25A2,2,0,0,1,81.48,202.73Z"/><path class="cls-1" d="M96.39,211.57a1.17,1.17,0,0,1,.08.29.21.21,0,0,1-.07.18.47.47,0,0,1-.22.07l-.43,0h-.42a1.11,1.11,0,0,1-.24-.05A.19.19,0,0,1,95,212a.62.62,0,0,1-.08-.12L94,209.23H89.38l-.9,2.6a.32.32,0,0,1-.07.13.34.34,0,0,1-.13.1.89.89,0,0,1-.23.05l-.38,0-.41,0A.46.46,0,0,1,87,212a.24.24,0,0,1-.06-.17,1.05,1.05,0,0,1,.07-.3l3.7-10.05a.38.38,0,0,1,.09-.15.31.31,0,0,1,.16-.09.93.93,0,0,1,.27-.05h.87a1,1,0,0,1,.29.05.34.34,0,0,1,.17.09.44.44,0,0,1,.1.16Zm-4.74-8.87h0l-1.9,5.39h3.83Z"/><path class="cls-1" d="M106.56,211.48a.62.62,0,0,1-.06.29.58.58,0,0,1-.15.19.53.53,0,0,1-.21.11.85.85,0,0,1-.23,0h-.48a1.59,1.59,0,0,1-.4,0,1,1,0,0,1-.33-.17,1.64,1.64,0,0,1-.3-.33,3.19,3.19,0,0,1-.33-.54l-3.36-6.15c-.18-.32-.36-.65-.53-1s-.35-.69-.5-1h0l0,1.23c0,.42,0,.84,0,1.25v6.53a.21.21,0,0,1,0,.11.19.19,0,0,1-.12.09l-.23.05-.35,0-.36,0-.22-.05a.2.2,0,0,1-.11-.09.15.15,0,0,1,0-.11v-10a.58.58,0,0,1,.19-.48.74.74,0,0,1,.43-.14h.72a1.66,1.66,0,0,1,.42,0,.8.8,0,0,1,.31.14,1,1,0,0,1,.26.27,2.3,2.3,0,0,1,.27.43l2.58,4.75.47.84c.14.28.29.55.42.82l.41.79.4.78h0c0-.44,0-.9,0-1.37s0-.94,0-1.38V201.5a.17.17,0,0,1,0-.11.31.31,0,0,1,.12-.09,1,1,0,0,1,.22-.05l.37,0,.34,0a.8.8,0,0,1,.22.05.31.31,0,0,1,.12.09.25.25,0,0,1,0,.11Z"/><path class="cls-1" d="M118,206.51a7.52,7.52,0,0,1-.37,2.45,4.5,4.5,0,0,1-1.07,1.74,4.33,4.33,0,0,1-1.72,1,7.67,7.67,0,0,1-2.44.35H110a.66.66,0,0,1-.37-.13.53.53,0,0,1-.18-.46v-9.65a.51.51,0,0,1,.18-.45.6.6,0,0,1,.37-.13h2.49a7.1,7.1,0,0,1,2.42.36,4.37,4.37,0,0,1,1.66,1,4.45,4.45,0,0,1,1,1.65A6.53,6.53,0,0,1,118,206.51Zm-1.55.06a5.75,5.75,0,0,0-.22-1.64,3.5,3.5,0,0,0-.69-1.31,3.33,3.33,0,0,0-1.2-.86,4.87,4.87,0,0,0-1.86-.31H111v8.42h1.51a5.18,5.18,0,0,0,1.78-.26,2.83,2.83,0,0,0,1.2-.79,3.34,3.34,0,0,0,.73-1.34A6.78,6.78,0,0,0,116.41,206.57Z"/><path class="cls-1" d="M130.07,209a3.12,3.12,0,0,1-.29,1.36,2.85,2.85,0,0,1-.79,1,3.39,3.39,0,0,1-1.19.63,5,5,0,0,1-1.48.21,4.64,4.64,0,0,1-1-.1,5.09,5.09,0,0,1-.84-.22,3.79,3.79,0,0,1-.63-.28,1.71,1.71,0,0,1-.35-.24.68.68,0,0,1-.14-.25,1.61,1.61,0,0,1,0-.42,2.36,2.36,0,0,1,0-.3.83.83,0,0,1,0-.2.18.18,0,0,1,.09-.1.21.21,0,0,1,.12,0,.64.64,0,0,1,.33.14,6.38,6.38,0,0,0,.56.31,6.2,6.2,0,0,0,.82.31,3.73,3.73,0,0,0,1.11.15,2.65,2.65,0,0,0,.87-.13,2.14,2.14,0,0,0,.69-.35,1.51,1.51,0,0,0,.43-.57,1.67,1.67,0,0,0,.16-.76,1.33,1.33,0,0,0-.22-.78,2,2,0,0,0-.56-.58,5.85,5.85,0,0,0-.79-.45l-.92-.42c-.31-.14-.61-.3-.91-.47a3.69,3.69,0,0,1-.79-.61,3,3,0,0,1-.57-.82,2.83,2.83,0,0,1-.21-1.14,2.71,2.71,0,0,1,.25-1.2,2.47,2.47,0,0,1,.69-.9,3.27,3.27,0,0,1,1.07-.54,4.36,4.36,0,0,1,1.33-.19,4.62,4.62,0,0,1,.74.06,5.11,5.11,0,0,1,.7.17,5.39,5.39,0,0,1,.58.23,1.58,1.58,0,0,1,.33.21.83.83,0,0,1,.11.13.36.36,0,0,1,0,.11q0,.08,0,.18a1.86,1.86,0,0,1,0,.26c0,.1,0,.19,0,.26s0,.15,0,.2a.25.25,0,0,1-.08.12.17.17,0,0,1-.1,0,.68.68,0,0,1-.3-.11c-.13-.08-.29-.17-.49-.27a5.13,5.13,0,0,0-.68-.26,3,3,0,0,0-.89-.13,2.39,2.39,0,0,0-.8.13,1.52,1.52,0,0,0-.56.32,1.18,1.18,0,0,0-.33.47,1.48,1.48,0,0,0-.12.59,1.43,1.43,0,0,0,.22.78,2.16,2.16,0,0,0,.56.57,4.5,4.5,0,0,0,.81.46l.92.43c.31.14.62.29.92.46a3.76,3.76,0,0,1,.8.61,2.61,2.61,0,0,1,.79,1.93Z"/><path class="cls-1" d="M138.29,211.48a2.26,2.26,0,0,1,0,.27c0,.07,0,.14-.06.19a.24.24,0,0,1-.1.1.19.19,0,0,1-.12,0h-5.29a.64.64,0,0,1-.37-.13.53.53,0,0,1-.18-.46v-9.65a.51.51,0,0,1,.18-.45.58.58,0,0,1,.37-.13h5.23l.12,0s.06.06.09.11a.74.74,0,0,1,0,.19,1.14,1.14,0,0,1,0,.28,1,1,0,0,1,0,.26.74.74,0,0,1,0,.19s-.05.08-.09.1a.27.27,0,0,1-.12,0h-4.31v3.4h3.69a.2.2,0,0,1,.13,0,.45.45,0,0,1,.09.1.48.48,0,0,1,.05.18,1.19,1.19,0,0,1,0,.28,1,1,0,0,1,0,.26.48.48,0,0,1-.05.18.38.38,0,0,1-.09.09.28.28,0,0,1-.13,0h-3.69v3.87H138a.19.19,0,0,1,.12,0,.24.24,0,0,1,.1.1,1.89,1.89,0,0,1,.06.18A2.35,2.35,0,0,1,138.29,211.48Z"/><path class="cls-1" d="M148,211.86a.25.25,0,0,1,0,.12.24.24,0,0,1-.11.08,1.11,1.11,0,0,1-.24.05l-.41,0-.36,0-.23-.05a.35.35,0,0,1-.13-.11.6.6,0,0,1-.08-.16l-1-2.56c-.12-.29-.25-.55-.37-.79a2.33,2.33,0,0,0-.46-.63,1.77,1.77,0,0,0-.62-.41,2.21,2.21,0,0,0-.86-.15h-1v4.61a.19.19,0,0,1,0,.12.23.23,0,0,1-.12.08l-.22.05-.35,0-.35,0-.23-.05a.23.23,0,0,1-.12-.08.27.27,0,0,1,0-.12v-10a.54.54,0,0,1,.17-.45.6.6,0,0,1,.37-.13h2.34l.7,0,.49.05a4,4,0,0,1,1.13.34,2.5,2.5,0,0,1,.82.59,2.32,2.32,0,0,1,.5.82,3.09,3.09,0,0,1,.17,1,2.91,2.91,0,0,1-.15,1,2.27,2.27,0,0,1-.43.76,2.89,2.89,0,0,1-.67.58,4.46,4.46,0,0,1-.88.41,1.72,1.72,0,0,1,.49.29,2.86,2.86,0,0,1,.42.43,5.88,5.88,0,0,1,.36.58c.11.22.23.46.34.74l1,2.38a3.9,3.9,0,0,1,.15.42A.89.89,0,0,1,148,211.86Zm-2.2-7.6a1.92,1.92,0,0,0-.29-1.07,1.62,1.62,0,0,0-1-.64l-.48-.08a7,7,0,0,0-.7,0h-1.24v3.64h1.43a3.26,3.26,0,0,0,1-.14,2,2,0,0,0,.7-.38,1.57,1.57,0,0,0,.42-.58A2,2,0,0,0,145.82,204.26Z"/><path class="cls-1" d="M154.36,211.83a.56.56,0,0,1-.1.15.35.35,0,0,1-.16.09,1.46,1.46,0,0,1-.27.05h-.75l-.24,0-.17,0-.13-.05a.3.3,0,0,1-.08-.08,1.17,1.17,0,0,1-.05-.11l-3.6-10a.79.79,0,0,1-.07-.3.18.18,0,0,1,.07-.17.56.56,0,0,1,.24-.08h.84a.55.55,0,0,1,.22.05.24.24,0,0,1,.11.08s.05.09.08.14l3.16,9.11h0l3.08-9.09a.34.34,0,0,1,.06-.15.19.19,0,0,1,.12-.09.61.61,0,0,1,.23-.05h.41a2.43,2.43,0,0,1,.42,0,.34.34,0,0,1,.21.08.18.18,0,0,1,0,.17,1.23,1.23,0,0,1-.08.3Z"/><path class="cls-1" d="M161.26,211.86a.27.27,0,0,1,0,.12.23.23,0,0,1-.12.08l-.23.05-.35,0-.35,0-.23-.05a.23.23,0,0,1-.12-.08.27.27,0,0,1,0-.12V201.48a.16.16,0,0,1,0-.12.23.23,0,0,1,.12-.08l.23-.05a3,3,0,0,1,.69,0,1,1,0,0,1,.23.05.23.23,0,0,1,.12.08.21.21,0,0,1,0,.12Z"/><path class="cls-1" d="M171.54,210.55v.23q0,.1,0,.18l-.06.13a.47.47,0,0,1-.12.14,1.86,1.86,0,0,1-.36.26,4.65,4.65,0,0,1-.67.33,6.06,6.06,0,0,1-.93.28,5.83,5.83,0,0,1-1.15.11,5.14,5.14,0,0,1-1.93-.35,3.76,3.76,0,0,1-1.47-1,4.61,4.61,0,0,1-.94-1.69,7.42,7.42,0,0,1-.33-2.32,7.67,7.67,0,0,1,.35-2.4,5.13,5.13,0,0,1,1-1.78,4.21,4.21,0,0,1,1.52-1.12,4.89,4.89,0,0,1,2-.39,4.7,4.7,0,0,1,.92.09,6.42,6.42,0,0,1,.84.22,4.78,4.78,0,0,1,.68.31,2.85,2.85,0,0,1,.41.29.88.88,0,0,1,.15.17l.06.14s0,.12,0,.19a2,2,0,0,1,0,.26,2.35,2.35,0,0,1,0,.28.8.8,0,0,1-.06.2.36.36,0,0,1-.08.12.2.2,0,0,1-.11,0,.66.66,0,0,1-.34-.16,4.39,4.39,0,0,0-.55-.36,4.56,4.56,0,0,0-.82-.36,3.61,3.61,0,0,0-1.16-.16,3,3,0,0,0-1.34.29,2.71,2.71,0,0,0-1,.85,3.84,3.84,0,0,0-.66,1.36,7.24,7.24,0,0,0,0,3.66,3.84,3.84,0,0,0,.65,1.33,2.72,2.72,0,0,0,1,.8,3.41,3.41,0,0,0,1.39.27,3.59,3.59,0,0,0,1.15-.16,4.17,4.17,0,0,0,.84-.35,5.83,5.83,0,0,0,.57-.36.78.78,0,0,1,.35-.16.15.15,0,0,1,.1,0,.13.13,0,0,1,.07.09.88.88,0,0,1,0,.2A2.92,2.92,0,0,1,171.54,210.55Z"/><path class="cls-1" d="M179.62,211.48a2.13,2.13,0,0,1,0,.27.53.53,0,0,1-.06.19.24.24,0,0,1-.1.1.19.19,0,0,1-.12,0H174a.66.66,0,0,1-.37-.13.53.53,0,0,1-.17-.46v-9.65a.51.51,0,0,1,.17-.45.6.6,0,0,1,.37-.13h5.23l.12,0a.2.2,0,0,1,.09.11,1.45,1.45,0,0,1,.06.19,2,2,0,0,1,0,.28,1.84,1.84,0,0,1,0,.26,1.45,1.45,0,0,1-.06.19.22.22,0,0,1-.09.1.27.27,0,0,1-.12,0H175v3.4h3.7a.19.19,0,0,1,.12,0,.22.22,0,0,1,.09.1.48.48,0,0,1,.06.18,2.16,2.16,0,0,1,0,.28,1.84,1.84,0,0,1,0,.26.48.48,0,0,1-.06.18.2.2,0,0,1-.09.09l-.12,0H175v3.87h4.37a.19.19,0,0,1,.12,0,.24.24,0,0,1,.1.1.48.48,0,0,1,.06.18A2.16,2.16,0,0,1,179.62,211.48Z"/><path class="cls-1" d="M187.75,209a3.12,3.12,0,0,1-.29,1.36,2.85,2.85,0,0,1-.79,1,3.48,3.48,0,0,1-1.19.63,5,5,0,0,1-1.48.21,4.8,4.8,0,0,1-1-.1,5.68,5.68,0,0,1-.84-.22,3.66,3.66,0,0,1-.62-.28,1.47,1.47,0,0,1-.35-.24.68.68,0,0,1-.14-.25,1.61,1.61,0,0,1-.05-.42,2.36,2.36,0,0,1,0-.3.53.53,0,0,1,0-.2.21.21,0,0,1,.08-.1.27.27,0,0,1,.12,0,.67.67,0,0,1,.34.14,5.18,5.18,0,0,0,.56.31,5.7,5.7,0,0,0,.82.31,3.73,3.73,0,0,0,1.11.15,2.65,2.65,0,0,0,.87-.13,2,2,0,0,0,.68-.35,1.54,1.54,0,0,0,.44-.57,1.81,1.81,0,0,0,.15-.76,1.4,1.4,0,0,0-.21-.78,2.2,2.2,0,0,0-.56-.58,5.43,5.43,0,0,0-.8-.45l-.91-.42a9.76,9.76,0,0,1-.91-.47,3.69,3.69,0,0,1-.79-.61,2.63,2.63,0,0,1-.57-.82,2.67,2.67,0,0,1-.22-1.14,2.86,2.86,0,0,1,.25-1.2,2.49,2.49,0,0,1,.7-.9,3.17,3.17,0,0,1,1.07-.54,4.36,4.36,0,0,1,1.33-.19,4.49,4.49,0,0,1,.73.06,4.78,4.78,0,0,1,.7.17,4.86,4.86,0,0,1,.59.23,1.58,1.58,0,0,1,.33.21.83.83,0,0,1,.11.13.36.36,0,0,1,0,.11q0,.08,0,.18v.26a2,2,0,0,1,0,.26.88.88,0,0,1,0,.2.24.24,0,0,1-.07.12.2.2,0,0,1-.11,0,.62.62,0,0,1-.29-.11l-.49-.27a5.13,5.13,0,0,0-.68-.26,3.08,3.08,0,0,0-.89-.13,2.35,2.35,0,0,0-.8.13,1.57,1.57,0,0,0-.57.32,1.43,1.43,0,0,0-.33.47,1.67,1.67,0,0,0-.11.59,1.42,1.42,0,0,0,.21.78,2.37,2.37,0,0,0,.57.57,4.18,4.18,0,0,0,.81.46l.91.43a9.86,9.86,0,0,1,.92.46,3.82,3.82,0,0,1,.81.61,2.86,2.86,0,0,1,.57.82A2.68,2.68,0,0,1,187.75,209Z"/><path class="cls-2" d="M30.1,179.11a25.23,25.23,0,0,1-.54,5.41,10.67,10.67,0,0,1-1.88,4.19,8.61,8.61,0,0,1-3.5,2.67,13.51,13.51,0,0,1-5.38.94,14,14,0,0,1-4.15-.63,12.13,12.13,0,0,1-1.56-.61,3.53,3.53,0,0,1-.89-.56,3.3,3.3,0,0,1-.35-.46,2.42,2.42,0,0,1-.23-.56,4,4,0,0,1-.14-.81c0-.32,0-.71,0-1.17a13.48,13.48,0,0,1,.06-1.4,2.56,2.56,0,0,1,.22-.88,1,1,0,0,1,.37-.47,1,1,0,0,1,.53-.13,1.77,1.77,0,0,1,.8.29c.32.19.72.4,1.17.63a12.21,12.21,0,0,0,1.59.64,7,7,0,0,0,2.11.28,6.9,6.9,0,0,0,2.27-.32A3.16,3.16,0,0,0,22.12,185a6.44,6.44,0,0,0,.94-2.44,21.25,21.25,0,0,0,.31-4.06V142.87a.9.9,0,0,1,.16-.5,1.19,1.19,0,0,1,.55-.38,3.94,3.94,0,0,1,1-.23,12.28,12.28,0,0,1,1.62-.08,12.24,12.24,0,0,1,1.6.08,3.67,3.67,0,0,1,1,.23,1.31,1.31,0,0,1,.55.38.78.78,0,0,1,.17.5Z"/><path class="cls-3" d="M69.23,190.71a.81.81,0,0,1-.31.69,2.19,2.19,0,0,1-.87.35,8.13,8.13,0,0,1-1.6.11,8.77,8.77,0,0,1-1.62-.11,1.87,1.87,0,0,1-.88-.35.82.82,0,0,1-.28-.69v-3.46A17.34,17.34,0,0,1,58.53,191a14,14,0,0,1-6,1.34,16.48,16.48,0,0,1-5-.71,11,11,0,0,1-3.83-2.05,9.12,9.12,0,0,1-2.46-3.31,10.69,10.69,0,0,1-.88-4.46,10.17,10.17,0,0,1,1.21-5.07A10.06,10.06,0,0,1,45,173.19a17.07,17.07,0,0,1,5.56-2.13,34.65,34.65,0,0,1,7.39-.71h4.85v-2.69a13,13,0,0,0-.43-3.54A6.1,6.1,0,0,0,61,161.56,6,6,0,0,0,58.51,160a11.68,11.68,0,0,0-3.76-.52,14.85,14.85,0,0,0-4.28.56,22.55,22.55,0,0,0-3.33,1.23,25.38,25.38,0,0,0-2.38,1.23,3.33,3.33,0,0,1-1.43.55,1,1,0,0,1-.55-.15,1.33,1.33,0,0,1-.41-.46,2.3,2.3,0,0,1-.25-.79,5.79,5.79,0,0,1-.08-1.06,6.69,6.69,0,0,1,.13-1.51,2.24,2.24,0,0,1,.67-1.06,8.7,8.7,0,0,1,1.82-1.17,19.85,19.85,0,0,1,3-1.23,28.62,28.62,0,0,1,3.68-.93,22.62,22.62,0,0,1,4-.36,21.57,21.57,0,0,1,6.45.84,10.56,10.56,0,0,1,4.31,2.48,9.54,9.54,0,0,1,2.38,4.06,19.09,19.09,0,0,1,.75,5.65Zm-6.42-15.79H57.3a21.43,21.43,0,0,0-4.62.44,9.4,9.4,0,0,0-3.25,1.31,5.42,5.42,0,0,0-1.9,2.07,6.22,6.22,0,0,0-.6,2.79,5.52,5.52,0,0,0,1.74,4.28,7,7,0,0,0,4.87,1.6,9.22,9.22,0,0,0,4.71-1.27,20.32,20.32,0,0,0,4.56-3.88Z"/><path class="cls-4" d="M108.63,156c0,.1,0,.21,0,.33l-.06.36c0,.13-.06.27-.1.43l-.14.5-12,32.85a2,2,0,0,1-.41.69,1.66,1.66,0,0,1-.76.42,5.72,5.72,0,0,1-1.29.22c-.53,0-1.18.05-2,.05s-1.43,0-2-.07a6.63,6.63,0,0,1-1.27-.23,2,2,0,0,1-.76-.43,1.85,1.85,0,0,1-.43-.65l-12-32.85c-.11-.31-.19-.58-.26-.81a3.51,3.51,0,0,1-.11-.52,1.62,1.62,0,0,1,0-.29,1,1,0,0,1,.15-.54,1.08,1.08,0,0,1,.53-.36,3.4,3.4,0,0,1,1-.17c.4,0,.91,0,1.51,0,.75,0,1.36,0,1.81.06a3.23,3.23,0,0,1,1.06.21,1.31,1.31,0,0,1,.55.38,2.61,2.61,0,0,1,.33.58L92,184.64l.16.46.11-.46,9.82-28.51a1.43,1.43,0,0,1,.28-.58,1.49,1.49,0,0,1,.56-.38,3.13,3.13,0,0,1,1-.21c.43,0,1-.06,1.7-.06s1.1,0,1.49,0a2.59,2.59,0,0,1,.92.19,1.07,1.07,0,0,1,.47.36A1,1,0,0,1,108.63,156Z"/><path class="cls-5" d="M122.4,190.67a.81.81,0,0,1-.16.52,1.25,1.25,0,0,1-.51.37,3.62,3.62,0,0,1-1,.23,14,14,0,0,1-1.6.07,13.45,13.45,0,0,1-1.56-.07,4,4,0,0,1-1-.23,1.12,1.12,0,0,1-.51-.37.94.94,0,0,1-.14-.52V139.34a1,1,0,0,1,.14-.54,1,1,0,0,1,.51-.39,4,4,0,0,1,1-.23,13.45,13.45,0,0,1,1.56-.07,14,14,0,0,1,1.6.07,3.62,3.62,0,0,1,1,.23,1.12,1.12,0,0,1,.51.39.89.89,0,0,1,.16.54Z"/><path class="cls-6" d="M141.53,144.41a4.14,4.14,0,0,1-.86,3,4.69,4.69,0,0,1-3.17.81,4.58,4.58,0,0,1-3.11-.79,4,4,0,0,1-.84-3,4.09,4.09,0,0,1,.86-3,4.67,4.67,0,0,1,3.17-.81,4.58,4.58,0,0,1,3.11.79A4,4,0,0,1,141.53,144.41Zm-.74,46.26a.87.87,0,0,1-.16.52,1.32,1.32,0,0,1-.51.37,3.62,3.62,0,0,1-1,.23,14,14,0,0,1-1.6.07,13.76,13.76,0,0,1-1.57-.07,3.92,3.92,0,0,1-1-.23,1.12,1.12,0,0,1-.51-.37.94.94,0,0,1-.14-.52V156.09a1,1,0,0,1,.14-.5,1.07,1.07,0,0,1,.51-.39,4.4,4.4,0,0,1,1-.23,13.76,13.76,0,0,1,1.57-.07,14,14,0,0,1,1.6.07,4,4,0,0,1,1,.23,1.25,1.25,0,0,1,.51.39.9.9,0,0,1,.16.5Z"/><path class="cls-7" d="M183,190.67a.81.81,0,0,1-.16.52,1.25,1.25,0,0,1-.51.37,3.64,3.64,0,0,1-1,.23,13.76,13.76,0,0,1-1.57.07,14,14,0,0,1-1.6-.07,3.62,3.62,0,0,1-1-.23,1.25,1.25,0,0,1-.51-.37.87.87,0,0,1-.16-.52V170.42a19.17,19.17,0,0,0-.47-4.76,10,10,0,0,0-1.36-3.12,5.91,5.91,0,0,0-2.33-2,7.39,7.39,0,0,0-3.31-.7,8.43,8.43,0,0,0-4.85,1.7,26.12,26.12,0,0,0-5.09,4.95v24.17a.86.86,0,0,1-.15.52,1.4,1.4,0,0,1-.51.37,3.72,3.72,0,0,1-1,.23,14.1,14.1,0,0,1-1.6.07,13.76,13.76,0,0,1-1.57-.07,4,4,0,0,1-1-.23,1.14,1.14,0,0,1-.5-.37.86.86,0,0,1-.14-.52V156.09a1,1,0,0,1,.12-.52.94.94,0,0,1,.47-.38,2.36,2.36,0,0,1,.9-.23,13.66,13.66,0,0,1,1.44-.06,14,14,0,0,1,1.43.06,2.12,2.12,0,0,1,.88.23,1.16,1.16,0,0,1,.45.38.94.94,0,0,1,.14.52v4.57a21.43,21.43,0,0,1,5.93-4.78,12.9,12.9,0,0,1,6-1.52,13.48,13.48,0,0,1,5.93,1.17,10.69,10.69,0,0,1,3.89,3.13,12.41,12.41,0,0,1,2.13,4.6,26.82,26.82,0,0,1,.65,6.32Z"/><path class="cls-8" d="M97.65,10.6a34.3,34.3,0,0,0,4.77,12.19c5.29,8.68,10.73,17.27,16.16,25.87,4.74,7.51,9.61,15,13.43,23,2.93,6.17,5.25,12.57,5.92,19.41,1.45,14.67-3.2,26.93-14.9,36.22-8.12,6.45-17.46,9.06-27.73,8.58-13.3-.62-23.79-6.44-31.55-17.21A37.3,37.3,0,0,1,57.07,101C56,92.23,58,84,61.25,75.91c3-7.43,7.3-14.17,11.58-20.9C77.92,47,83.1,39,88.08,31A88.88,88.88,0,0,0,96.86,13C97.11,12.3,97.33,11.57,97.65,10.6Z"/><path class="cls-1" d="M94.34,76.7c0,3.9,2.06,7.85,3.9,11.24,2.33,4.26,5.06,8.3,7.78,12.33,1.22,1.81,2.44,3.62,3.6,5.46,1.29,2,2.43,4.16,3.65,6.23,3.07,5.24,6.31,10.38,9.54,15.53l.13-.1c11.82-9.3,16.51-21.57,15.05-36.26-.68-6.85-3-13.26-6-19.44a162,162,0,0,0-9.58-16.8l-1,.63a89.23,89.23,0,0,0-9.94,6.94C105.78,67.24,100.54,72.54,94.34,76.7Z"/><path class="cls-9" d="M127.89,84c-.29,2.92-1.91,8.55-9.8,8.93l0,.08c2.43.21,9,1.53,8.92,9.57,0,0,.59-8,9.66-9C136.72,93.62,128.13,93,127.89,84Z"/><path class="cls-9" d="M115.4,77.54h0c-.27,2.42-1.64,7-8.12,7.22v0c1.81.12,7.42,1,7.43,7.68h0c.11-.9,1.06-6.44,7.86-7.18C122.59,85.31,115.63,84.81,115.4,77.54Z"/><path class="cls-10" d="M120.25,127c-8.49-13.65-17.14-28.35-25.79-42.19C84.08,96.87,80.62,113.3,68.51,124.54c13.84,13.84,37.2,15.57,52.9,4.24C121,128.15,120.61,127.53,120.25,127Z"/><circle class="cls-9" cx="91.22" cy="51.87" r="12.08"/><polygon class="cls-9" points="83.6 74.75 134.28 45.6 97.79 78.35 127.98 137.65 83.6 74.75"/><path class="cls-9" d="M71.35,124.11,97.93,78.77l-2.25-.84L68.55,124.21C69.48,124.16,70.41,124.13,71.35,124.11Z"/><rect class="cls-9" x="62.98" y="121.36" width="14.69" height="2.77"/></svg>